<?xml version="1.0" encoding="utf-8"?>
<!-- Generator: Adobe Illustrator 25.1.0, SVG Export Plug-In . SVG Version: 6.00 Build 0)  -->
<svg version="1.1" id="Layer_1" xmlns="http://www.w3.org/2000/svg" xmlns:xlink="http://www.w3.org/1999/xlink" x="0px" y="0px"
	 viewBox="0 0 281.45 553.09" style="enable-background:new 0 0 281.45 553.09;" xml:space="preserve">
<style type="text/css">
	.st0{fill:#FEFEFE;}
	.st1{fill:#402600;}
	.st2{fill:#221400;}
	.st3{fill:#98A84C;}
	.st4{fill:#607434;}
	.st5{fill:#402906;}
	.st6{fill:#9BAB52;}
	.st7{fill:#6F8147;}
	.st8{fill:#80905C;}
	.st9{fill:#B6B2AB;}
	.st10{fill:#CDC9C4;}
	.st11{fill:#281B07;}
</style>
<g>
	<g>
		<g>
			<path class="st0" d="M0.05,276.55C0.05,185.2,0.06,93.85,0,2.51C0,0.46,0.46,0,2.5,0c92.15,0.06,184.3,0.06,276.45,0
				c2.04,0,2.51,0.46,2.5,2.51c-0.05,182.69-0.05,365.39,0,548.08c0,2.04-0.46,2.51-2.5,2.51c-92.15-0.06-184.3-0.06-276.45,0
				c-2.04,0-2.51-0.46-2.5-2.51C0.06,459.24,0.05,367.89,0.05,276.55z"/>
			<path class="st1" d="M253.55,540.51c-0.32,1.1-1.17,0.56-1.8,0.54c-16.78-0.53-33.57-1.17-50.36-0.39
				c-18.22,0.85-36.41,2.44-54.65,2.8c-17.97,0.36-35.94,0.36-53.91,0.54c-4.15,0.04-8.02-1.42-12.03-2.09
				c-4.29-0.72-8.58-1.46-12.86-2.25c-7.17-1.33-13-5.42-18.88-9.36c-3.01-2.02-5.91-4.22-8.77-6.45c-0.92-0.71-1.64-1-2.57-0.2
				c-0.54-0.8-0.74-1.75-1.56-2.46c-6.28-5.44-11.33-11.89-15.17-19.25c-1.4-2.69-3.45-4.98-4.56-7.83c2.28-0.3,0.77-1.63,0.49-2.31
				c-4.48-10.92-6.76-22.38-8.8-33.94c-2.3-13.06-1.18-26.07-0.24-39.12c0.56-7.71,1.39-15.36,2.92-22.95
				c1.87-9.33,5.22-18.11,9.26-26.69c10.24-21.71,22.81-42.17,34.01-63.36c3.25-6.14,4.21-12.91,6.4-19.34
				c4.33-12.72,6.48-26.09,11.41-38.65c2.14-5.45,4.76-10.6,8.48-15.15c4.45-5.44,7.63-11.71,11.53-17.51
				c2.68-3.99,2.09-8.38,1.69-12.67c-1-10.59-1.8-21.18-1.82-31.81c-0.01-7.24,0.99-14.31,3.67-21.08c0.48-1.21,0.43-2.26-0.13-3.39
				c-1-2.04-1.99-4.09-2.9-6.16c-3.84-8.73-1.55-18.76,5.42-24.2c4.17-3.26,8.68-4.12,13.5-1.82c2.39,1.14,4.12,1.12,5.61-1.33
				c0.59-0.96,1.68-1.61,2.54-2.41c1.36,1.98,0.71,4.22,0.71,6.34c0,4.88,0.57,9.6,2.96,13.94c0.67,1.21,1.24,2.62,2.9,2.91
				c0.63-1.19-0.08-2.06-0.35-2.96c-2.13-7.29-3.65-14.62-1.98-22.24c0.29-1.32,0.46-2.71,1.7-3.59c2.52-1.24,4.74-2.96,7.08-4.49
				c2.07-0.29,3.65,0.72,5.12,1.98c0.69,0.59,1.26,1.3,2.01,1.82c0.46,0.32,0.99,0.57,1.49,0.16c0.49-0.4,0.4-0.99,0.15-1.49
				c-0.65-1.3-1.44-2.49-2.6-3.43c-0.49-0.4-1.48-0.49-1.14-1.54c5.08-1.95,10.25-3.02,15.68-1.67c1.03,0.25,1.69-0.48,2.37-1.07
				c4.22-3.68,9-6.42,14.21-8.42c8.02-3.08,15.72-7.1,24.34-8.48c0.3,1.16-0.73,1.56-1.32,2.15c-1.3,1.3-2.38,2.74-3.23,4.35
				c-1.61,3.04-0.23,5.8,3.23,6.34c1.8,0.28,3.61,0.15,5.41-0.22c3.46-0.72,6.9-1.59,10.38-2.17c3.76-0.63,4.77,0.18,6.35,3.66
				c1.86,4.1,3.03,8.34,3.68,12.76c0.41,2.81,0.09,3.35-2.61,4.07c-4.49,1.2-8.46,3.23-11.43,6.92c-0.91,1.12-1.86,2.22-1.83,3.88
				c1-0.35,1.35-1.23,1.82-1.94c4.17-6.3,10.43-8.32,17.53-8.63c0.37-0.02,0.7,0.16,1,0.38c1.64,5.05-0.04,9.77-1.4,14.53
				c-1.57,5.49-4.81,10.12-7.73,14.89c-6.09,9.94-10.69,20.53-14.17,31.63c-0.16,0.52-0.34,1.04-0.66,1.49
				c-2.76,2.58-6.33,3.52-9.75,4.67c-3.79,1.27-7.66,2.3-11.57,3.12c-4.39,0.91-8.56,2.44-12.66,4.19
				c-1.96,0.84-3.92,1.44-6.02,0.39c1.89,1.68,4.01,1.05,6.1,0.76c7.62-1.06,15.03-0.49,22.15,2.69c4.02,1.79,4.34,2.21,3.18,6.32
				c-3.41,12.03-4.85,24.36-6.15,36.76c-0.92,8.74,1.26,16.99,2.67,25.36c2.94,17.38,5.89,34.76,8.58,52.17
				c1.21,7.8,2.08,15.66,2.76,23.54c0.08,0.9,0.33,2.05-0.7,2.4c-1.23,0.42-1.69-0.81-2.14-1.66c-3.49-6.56-5.47-13.64-7.05-20.85
				c-1.23-5.59-2.29-11.23-3.09-16.89c-1.87-13.24-7.44-24.59-16.59-34.26c-1.75-1.85-3.18-3.98-5.11-5.66
				c-0.8-0.7-1.55-1.5-3.51-1.39c2.62,2.59,4.1,5.4,6.02,7.83c8.25,10.44,11.15,22.62,12.33,35.5c1.17,12.71,3.06,25.32,8.75,36.94
				c4.71,9.6,10.75,18.32,18.4,25.86c1.41,1.39,3.2,2.03,5.02,2.63c3.96,1.32,7.96,2.55,11.64,4.6c5.34,2.97,9.58,7.1,13.13,12.06
				c5.72,8.01,10.28,16.43,11.48,26.44c1.08,8.96-0.49,17.37-4.41,25.38c-1.45,2.97-4.13,5.01-6.54,7.21
				c-0.71,0.1-1.41,0.2-2.12,0.3c-0.95,0.63-1.98,1.12-2.87,1.84c-2.82-1.35-5.9-0.7-8.81-0.9c-7.37-0.52-11.98-3.91-15.38-10.56
				c-4.87-9.51-9.45-19.21-15.43-28.16c-6.7-10.03-15.97-15.6-27.62-17.64c-8.77-1.53-17.63-2.54-26.35-4.36
				c-7.91-1.65-15.31-4.56-22.04-9.07c-7.53-5.04-11.1-12.19-11.44-21.17c-0.21-5.78,0.95-11.39,1.86-17.03
				c0.28-1.72,0.39-3.43,0.32-5.16c-0.03-0.78,0.15-1.87-0.87-2.06c-1.15-0.21-1.48,0.9-1.73,1.74c-1.31,4.54-2.71,9.04-3.56,13.71
				c-1.09,6.07-1.32,12.06,0.41,18.06c2.55,8.86,8.46,14.8,16.29,19.2c9.93,5.58,20.74,8.12,31.9,9.62
				c5.67,0.76,11.38,1.33,16.96,2.62c8.7,2,16.03,5.89,20.84,13.97c7.34,12.33,6.38,9.91,3.68,21.81
				c-3.4,15.03-8.26,29.57-15.22,43.36c-1.4,2.77-3.01,5.4-5.33,7.52c-0.53,0.48-1.17,1.15-1.89,0.8c-0.96-0.48-0.51-1.47-0.27-2.19
				c1.48-4.4,2.74-8.86,3.74-13.39c2.6-11.78,3.18-23.58-0.05-35.34c-1.65-6.01-4.88-11.08-9.71-15.13
				c-3.34-2.8-6.41-5.88-10.39-7.86c-6.32-3.14-12.74-3.43-19.25-0.9c-7.35,2.86-13.76,7.31-20.02,12.03
				c-9.11,6.87-17.52,14.44-24.57,23.44c-2.03,2.59-3.76,5.35-4.98,8.42c-0.66,1.66-0.89,3.35-0.2,5.05
				c0.95,2.35,3.44,2.87,5.31,1.13c0.27-0.25,0.51-0.52,0.71-0.83c7.3-11.33,17.38-19.94,27.77-28.22c5.9-4.7,12.04-9.1,19.11-11.97
				c6.56-2.67,12.44-1.63,17.64,3.2c0.53,0.5,1.07,0.98,1.66,1.42c6.56,4.92,9.45,11.71,10.23,19.68
				c1.85,19.09-3.82,36.23-13.45,52.35c-1.16,1.95-2.35,3.89-3.62,5.77c-0.61,0.91-1.13,1.87-1.31,2.97
				c-0.09,0.54-0.2,1.17,0.28,1.53c0.53,0.4,1.01-0.07,1.45-0.37c1.95-1.33,3.82-2.78,5.85-4c2.81-1.69,5.46-2.92,9.14-2.38
				c4.23,0.62,8.39,1.01,12.45,2.56c10.07,3.85,15.93,11.3,19.1,21.3c1.93,6.07,3.23,12.09,1.22,18.43
				c-0.66,2.07-1.79,3.94-2.32,6.02c0.68,0.67,1.46,0.46,2.12,0.37c6.24-0.91,12.53-0.13,18.78-0.55c7.71-0.51,15.4-0.04,23.1,0.05
				c4.81,0.06,9.59,0.83,14.41,0.59C252.28,539.77,253.01,539.91,253.55,540.51z"/>
			<path class="st2" d="M236.05,438.16c0.11-1.44,1.22-2.22,2.15-3.02c2.93-2.51,4.41-5.79,5.78-9.34
				c4.3-11.15,3.39-22.29-1.13-32.8c-3.77-8.77-9.03-16.95-17-22.87c-4.29-3.19-9.15-5.22-14.25-6.52
				c-4.54-1.15-7.68-4.03-10.47-7.39c-5.1-6.13-9.77-12.6-13.44-19.68c-3.85-7.42-6.21-15.4-7.73-23.64
				c-1.82-9.85-2.4-19.86-4.22-29.71c-1.12-6.05-3.59-11.39-6.98-16.33c-2.81-4.09-4.82-8.77-8.65-12.13
				c-0.47-0.41-1-0.94-0.64-1.64c0.43-0.83,1.29-0.62,1.94-0.44c2.24,0.62,3.59,2.47,4.98,4.09c3.53,4.12,7,8.29,10.25,12.63
				c4.83,6.44,7.25,13.93,8.8,21.72c2.21,11.06,3.45,22.33,7.21,33.04c1.22,3.48,2.53,6.93,4.72,10.16
				c1.06-1.07,0.18-1.97,0.14-2.86c-0.25-7.14-1.45-14.18-2.32-21.25c-0.86-6.97-2.32-13.87-3.35-20.83
				c-1.55-10.43-3.45-20.81-5.28-31.19c-1.11-6.3-2.01-12.64-3.13-18.94c-0.63-3.57,0.16-7.06,0.5-10.54
				c0.65-6.81,1.22-13.65,2.58-20.38c1.07-5.32,2.32-10.6,3.86-15.79c0.51-1.71,0.07-2.39-1.39-3.13
				c-8.18-4.14-16.79-4.78-25.63-3.11c-2.12,0.4-3.71-0.31-5.33-1.3c-0.51-0.31-1.08-0.85-0.58-1.57c0.42-0.6,1.02-0.3,1.45,0
				c1.97,1.38,3.84,0.99,5.87,0.01c7.48-3.6,15.74-4.67,23.59-7.1c3.73-1.15,7.25-2.72,10.72-4.44c0.42,0.56,0.33,1.14,0.07,1.73
				c-0.9,2.61-0.01,4.92,1.07,7.28c4.32,9.5,8.64,18.98,13.37,28.3c6.89,13.56,12.49,27.74,14.55,42.88
				c1.72,12.68,2.04,25.49,0.77,38.31c-0.84,8.48-2,16.93-2.06,25.5c-0.03,4.52,1.33,8.02,4.3,11.28
				c9.55,10.48,18.13,21.77,26.48,33.2c9.32,12.75,17.23,26.39,20.69,41.99c2.54,11.45,3.19,23.01-1.63,34.25
				c-1.4,3.25-3.32,4.96-7.03,5.35c-6.33,0.66-12.68,0.83-19.01,1.32C245.17,443.67,239.92,442.67,236.05,438.16z"/>
			<path class="st2" d="M253.55,540.51c-7.89-0.2-15.78-0.22-23.65-0.65c-10.24-0.55-20.46,0.41-30.69,0.16
				c-2.4-0.06-4.82,0.69-7.43,0.31c0.78-2.56,2.21-4.75,3-7.24c2.46-7.76-0.18-14.75-2.68-21.88
				c-4.25-12.08-17.75-18.83-28.87-19.53c-6.87-0.44-10.63,3.72-15.46,6.6c-0.65,0.39-1.01,1.52-2,0.97
				c-0.97-0.54-0.73-1.61-0.66-2.48c0.25-3.27,2.57-5.59,4.23-8.09c6.83-10.28,11.17-21.56,13.5-33.57
				c1.76-9.1,1.99-18.28-0.69-27.36c-1.38-4.65-4.19-8.25-7.81-11.19c-2.29-1.86-4.26-4.14-7.15-5.32
				c-6.6-2.7-12.31-0.19-17.77,3.02c-8.68,5.11-16.47,11.42-23.94,18.19c-5.66,5.13-10.9,10.58-15.47,16.68
				c-0.81,1.09-1.22,2.41-2.25,3.38c-2.25,2.13-5.41,1.45-6.55-1.42c-0.92-2.32-0.33-4.43,0.6-6.56c1.68-3.87,4.18-7.21,6.87-10.39
				c9.07-10.74,19.83-19.56,31.57-27.19c5.08-3.3,10.34-6.25,16.53-7.25c6.67-1.08,12.61,0.55,17.91,4.38
				c6.33,4.57,12.27,9.57,15.56,17.02c1.82,4.12,2.61,8.44,3.19,12.83c1.84,14.07-0.95,27.53-5.43,40.76
				c-0.17,0.49-0.28,0.99-0.53,1.85c3.07-2.12,4.86-4.84,6.29-7.72c5.57-11.22,10.28-22.77,13.26-34.98
				c1.33-5.44,2.59-10.9,4.05-16.31c0.53-1.98,0.43-3.82-0.42-5.55c-2.32-4.73-4.93-9.34-8.36-13.32
				c-4.23-4.91-10.07-7.35-16.27-8.68c-10.67-2.29-21.66-2.75-32.25-5.51c-9.29-2.42-18.09-6.12-25.37-12.53
				c-5.68-5-8.76-11.55-9.73-19.16c-1.23-9.65,1.8-18.56,4.29-27.59c0.37-1.35,1.01-2.47,2.58-2.24c1.67,0.24,1.3,1.69,1.36,2.83
				c0.28,5.3-1.35,10.37-1.91,15.57c-1.33,12.44,1.23,22.14,13.1,29.15c8.83,5.21,18.52,7.49,28.48,9.13
				c7.82,1.28,15.75,1.91,23.42,4.16c8.8,2.58,15.81,7.46,20.94,15.04c3.45,5.1,6.84,10.19,9.39,15.87
				c2.49,5.53,5.88,10.64,8.45,16.14c2.54,5.43,7.1,7.14,12.43,7.6c2.65,0.23,5.35,1.34,8.03,0.12c1.2-0.54,1.28,1.57,2.47,1.03
				c0.57-0.39,1.13-0.56,1.69,0c2.61,6.62,3.58,13.44,2.47,20.5c-0.98,6.24-3.04,12.14-6.01,17.71c-3.71,6.96-7.5,13.87-11.42,21.11
				c4.95,0.74,9.7,1.94,14.23,4c7.35,3.35,13.5,8.14,18.32,14.61C256.32,524.68,257.54,532.31,253.55,540.51z"/>
			<path class="st2" d="M16.42,494.11c3.11,2.79,4.57,6.68,6.62,10.15c3.71,6.29,8.21,11.86,13.78,16.56
				c0.96,0.81,1.23,1.68,0.89,2.83c-0.61,1.32-1.78,2.09-2.98,2.67c-6.48,3.16-13.31,4.31-20.38,2.71
				c-4.99-1.12-8.6-4.31-10.64-8.99c-2.68-6.15-3.26-12.49-0.45-18.76C5.78,495.65,11.21,492.82,16.42,494.11z"/>
			<path d="M223.02,109.6c-3.04,0.78-6.24,0.49-9.27,1.72c-4.43,1.8-7.53,4.9-10.04,8.79c-0.36,0.56-0.58,1.65-1.48,1.24
				c-0.9-0.41-0.58-1.52-0.36-2.21c1.18-3.65,3.91-6.07,6.98-8.04c2.36-1.52,5.01-2.62,7.82-3.01c1.45-0.2,1.63-0.99,1.43-2.05
				c-0.77-4.17-1.09-8.52-3.35-12.22c-0.87-1.43-0.19-3.53-2.1-4.41c-2.27-1.05-4.48-0.11-6.67,0.25c-4.09,0.67-8.03,2.2-12.27,2.05
				c-4.87-0.17-6.95-3.59-4.7-7.8c1.26-2.37,3.07-4.22,5.1-5.91c3.86-2.4,8.13-3.52,12.62-3.62c4.6-0.1,8.22,1.98,10.77,5.76
				c1.96,2.9,1.58,5.49-0.93,8.33c-0.78,0.92-0.05,1.66,0.34,2.41c2.35,4.58,4.01,9.39,4.69,14.51c0.11,0.82,0.31,1.59,0.98,2.15
				C223.28,108.1,223.65,108.75,223.02,109.6z"/>
			<path class="st3" d="M160.08,15.2c-0.09,2.97-1.01,5.71-2.18,8.4c-1.89,4.33-4.1,8.51-5.48,13.06c-0.38,1.25-0.95,2.52-2.61,2.19
				c-1.52-0.3-1.89-1.58-2.01-2.9c-0.2-2.32,0.51-4.51,1.25-6.65c1.36-3.95,2.9-7.84,4.27-11.78c0.49-1.42,1.26-3.18-0.17-4.31
				c-1.54-1.22-3.1,0.04-4.5,0.82c-1.71,0.95-3,2.34-3.85,4.11c-0.29,0.6-0.62,1.15-1.42,1c-0.74-0.14-0.99-0.72-1.12-1.38
				c-0.02-0.09-0.04-0.18-0.05-0.27c-0.35-3.61,1.61-6.08,4.25-8.03c2.91-2.15,6.15-3.23,9.69-1.46
				C159.09,9.47,160.07,12.1,160.08,15.2z"/>
			<path d="M125.98,104.89c-1.94,1.97-1.85,4.64-2.07,7.04c-0.63,6.87,0.86,13.49,3.15,19.94c0.33,0.93,1.08,1.94-0.19,2.6
				c-1.16,0.6-2.16-0.15-2.81-1.03c-2.08-2.8-3.38-5.96-4.06-9.39c-0.91-4.59-0.44-9.21-0.53-13.82c0.78-2.86,1.25-5.81,2.78-8.44
				c3.4-5.85,9.29-7.47,15.27-4.15c1.8,0.95,3.17,2.33,4.13,4.11c0.56,1.05,1.29,2.24,0.09,3.2c-1.21,0.96-2.21,0.07-3.02-0.86
				c-1.65-1.89-3.54-3.36-6.14-3.67C129.99,101.34,127.39,102.24,125.98,104.89z"/>
			<path class="st4" d="M116.3,62.06c0-2.17,0.02-4.35,0-6.52c-0.02-2.03-1.1-2.56-2.85-1.86c-2.99,1.19-5.62,2.94-7.64,5.48
				c-0.75,0.94-1.47,1.72-2.68,0.93c-1.1-0.72-0.99-1.82-0.64-2.92c1.31-4.09,9.07-9.35,13.34-9.04c3.1,0.23,5.29,2.51,5.88,6.15
				c0.73,4.56-0.43,9.01-0.79,13.51c-0.11,1.35-0.27,2.71-0.54,4.03c-0.16,0.77-0.42,1.7-1.41,1.79c-1.23,0.1-1.77-0.88-2.06-1.82
				c-0.75-2.46-0.67-5.01-0.67-7.55c0-0.72,0-1.45,0-2.17C116.25,62.06,116.27,62.06,116.3,62.06z"/>
			<path class="st4" d="M193.81,39.84c-0.02,2.47-1.13,4.56-2.35,6.58c-2.68,4.45-6.43,8.1-9.3,12.41
				c-0.47,0.71-1.18,1.18-2.09,0.82c-0.99-0.39-1.28-1.26-1.2-2.22c0.14-1.77,0.98-3.3,1.89-4.76c2.12-3.39,4.32-6.72,6.42-10.11
				c0.54-0.87,1.64-1.97,0.81-2.9c-0.74-0.84-2.06-0.13-3.08,0.18c-0.95,0.28-1.85,0.77-2.82,1c-1.48,0.35-2.68-0.91-1.98-2.22
				c1.6-2.99,4.69-3.51,7.64-4c2.2-0.37,4.13,0.36,5.4,2.35C193.71,37.85,193.8,38.84,193.81,39.84z"/>
			<path class="st5" d="M223.02,109.6c0-0.09,0.04-0.22,0-0.26c-3.04-2.76-2.1-6.83-3.34-10.19c-1.07-2.87-1.76-5.9-3.48-8.48
				c-0.65-0.97-0.61-1.62,0.39-2.2c1.46,4.37,3.57,8.47,5.16,12.81c4.16,11.33,2.35,21.89-3.76,31.76
				c-7.83,12.64-14.47,25.77-18.55,40.12c-0.05,0.16-0.21,0.28-0.32,0.42c-0.02-0.58-0.05-1.15-0.07-1.73
				c4.1-14.08,10.52-27.07,18.41-39.38c3.48-5.42,5.14-11.5,6.04-17.79C223.74,113.04,223.2,111.29,223.02,109.6z"/>
			<path class="st6" d="M151.92,53.25c-0.19,1.49-0.88,2.66-2.47,2.74c-1.34,0.07-2.23-0.73-2.21-2.16
				c0.02-1.57,0.93-2.58,2.45-2.72C151.09,50.97,151.8,51.88,151.92,53.25z"/>
			<path class="st7" d="M119.73,84.18c-0.99-0.04-1.5-0.57-1.46-1.54c0.04-0.96,0.61-1.46,1.58-1.45c1,0.01,1.5,0.61,1.47,1.54
				C121.29,83.68,120.7,84.18,119.73,84.18z"/>
			<path class="st8" d="M180.95,65.59c-0.54,0.04-0.93-0.13-0.97-0.68c-0.07-0.83,0.3-1.41,1.15-1.52c0.64-0.08,1.03,0.31,0.98,0.95
				C182.06,65.04,181.6,65.44,180.95,65.59z"/>
			<path class="st9" d="M233.42,439.6c-0.56,0-1.13,0-1.69,0c-0.16-2.12,1.44-0.83,2.21-1.14
				C233.77,438.84,233.6,439.22,233.42,439.6z"/>
			<path d="M132.51,116.34c-0.1-1.13,0.24-2.17,0.59-3.2c0.34-1.03,0.97-1.71,2.11-1.83c1.11-0.12,1.95,0.33,2.54,1.24
				c3.39,5.23,5.79,10.84,6.2,17.14c0.13,1.91,0.01,4.12-2.09,4.88c-2.23,0.81-3.58-0.84-4.83-2.57
				C133.64,127.29,133.23,121.78,132.51,116.34z"/>
			<path class="st10" d="M125.98,104.89c0.35-2.87,2.71-4.47,6.59-4.47C130.78,102.51,128.41,103.74,125.98,104.89z"/>
			<path class="st11" d="M223,282.02c0.76,0.89,0.7,1.54,0.35,2.37C222.4,283.77,222.35,283.11,223,282.02z"/>
		</g>
	</g>
</g>
</svg>
